<mxfile host="Electron" modified="2023-11-13T19:17:29.195Z" agent="Mozilla/5.0 (Windows NT 10.0; Win64; x64) AppleWebKit/537.36 (KHTML, like Gecko) draw.io/22.0.2 Chrome/114.0.5735.289 Electron/25.8.4 Safari/537.36" etag="6UcJ_x4lWOvG61VYVsEb" version="22.0.2" type="device">
  <diagram name="Страница — 1" id="JkBMAs6PX4Z9KeJ2yEXs">
    <mxGraphModel dx="1560" dy="1100" grid="1" gridSize="10" guides="1" tooltips="1" connect="1" arrows="1" fold="1" page="1" pageScale="1" pageWidth="827" pageHeight="1169" math="0" shadow="0">
      <root>
        <mxCell id="0" />
        <mxCell id="1" parent="0" />
        <mxCell id="YqVU-Yj3tgwoMbA_o4SS-303" style="edgeStyle=orthogonalEdgeStyle;rounded=0;orthogonalLoop=1;jettySize=auto;html=1;exitX=0.697;exitY=0.008;exitDx=0;exitDy=0;exitPerimeter=0;" parent="1" source="YqVU-Yj3tgwoMbA_o4SS-73" edge="1">
          <mxGeometry relative="1" as="geometry">
            <mxPoint x="1660" y="680" as="targetPoint" />
          </mxGeometry>
        </mxCell>
        <mxCell id="YqVU-Yj3tgwoMbA_o4SS-307" value="PWDATA" style="edgeLabel;html=1;align=center;verticalAlign=middle;resizable=0;points=[];fontSize=14;" parent="YqVU-Yj3tgwoMbA_o4SS-303" vertex="1" connectable="0">
          <mxGeometry x="-0.3846" y="1" relative="1" as="geometry">
            <mxPoint x="24" as="offset" />
          </mxGeometry>
        </mxCell>
        <mxCell id="YqVU-Yj3tgwoMbA_o4SS-4" value="" style="swimlane;startSize=0;fillColor=#f5f5f5;fontColor=#333333;strokeColor=#666666;" parent="1" vertex="1">
          <mxGeometry x="350" y="80" width="1150" height="1160" as="geometry">
            <mxRectangle x="300" y="190" width="50" height="40" as="alternateBounds" />
          </mxGeometry>
        </mxCell>
        <mxCell id="YqVU-Yj3tgwoMbA_o4SS-167" style="edgeStyle=orthogonalEdgeStyle;rounded=0;orthogonalLoop=1;jettySize=auto;html=1;exitX=0.094;exitY=-0.009;exitDx=0;exitDy=0;exitPerimeter=0;entryX=-0.001;entryY=0.113;entryDx=0;entryDy=0;entryPerimeter=0;" parent="YqVU-Yj3tgwoMbA_o4SS-4" source="YqVU-Yj3tgwoMbA_o4SS-27" target="YqVU-Yj3tgwoMbA_o4SS-76" edge="1">
          <mxGeometry relative="1" as="geometry">
            <mxPoint x="126.235" y="224.69738999999993" as="sourcePoint" />
            <mxPoint x="381.0699999999998" y="200.42597999999998" as="targetPoint" />
            <Array as="points">
              <mxPoint x="126" y="213" />
            </Array>
          </mxGeometry>
        </mxCell>
        <mxCell id="YqVU-Yj3tgwoMbA_o4SS-277" value="&lt;font style=&quot;font-size: 14px;&quot;&gt;AWVALID&lt;/font&gt;" style="edgeLabel;html=1;align=center;verticalAlign=middle;resizable=0;points=[];" parent="YqVU-Yj3tgwoMbA_o4SS-167" vertex="1" connectable="0">
          <mxGeometry x="0.0458" y="1" relative="1" as="geometry">
            <mxPoint as="offset" />
          </mxGeometry>
        </mxCell>
        <mxCell id="YqVU-Yj3tgwoMbA_o4SS-27" value="&lt;font size=&quot;1&quot; style=&quot;&quot;&gt;&lt;b style=&quot;font-size: 16px;&quot;&gt;AXI4-Lite SLAVE&lt;/b&gt;&lt;/font&gt;" style="rounded=0;whiteSpace=wrap;html=1;rotation=90;fillColor=#dae8fc;strokeColor=#6c8ebf;" parent="YqVU-Yj3tgwoMbA_o4SS-4" vertex="1">
          <mxGeometry x="-253.8" y="406.8" width="634.87" height="127.5" as="geometry" />
        </mxCell>
        <mxCell id="YqVU-Yj3tgwoMbA_o4SS-251" style="edgeStyle=orthogonalEdgeStyle;rounded=0;orthogonalLoop=1;jettySize=auto;html=1;exitX=0.759;exitY=1.006;exitDx=0;exitDy=0;exitPerimeter=0;entryX=1.001;entryY=0.689;entryDx=0;entryDy=0;entryPerimeter=0;" parent="YqVU-Yj3tgwoMbA_o4SS-4" source="YqVU-Yj3tgwoMbA_o4SS-73" target="YqVU-Yj3tgwoMbA_o4SS-75" edge="1">
          <mxGeometry relative="1" as="geometry">
            <mxPoint x="981" y="640" as="sourcePoint" />
            <mxPoint x="550" y="1010" as="targetPoint" />
            <Array as="points">
              <mxPoint x="920" y="641" />
              <mxPoint x="920" y="1020" />
              <mxPoint x="550" y="1020" />
            </Array>
          </mxGeometry>
        </mxCell>
        <mxCell id="YqVU-Yj3tgwoMbA_o4SS-252" value="PRDATA" style="edgeLabel;html=1;align=center;verticalAlign=middle;resizable=0;points=[];fontSize=14;" parent="YqVU-Yj3tgwoMbA_o4SS-251" vertex="1" connectable="0">
          <mxGeometry x="0.193" y="-2" relative="1" as="geometry">
            <mxPoint as="offset" />
          </mxGeometry>
        </mxCell>
        <mxCell id="YqVU-Yj3tgwoMbA_o4SS-300" style="edgeStyle=orthogonalEdgeStyle;rounded=0;orthogonalLoop=1;jettySize=auto;html=1;exitX=0.515;exitY=0.004;exitDx=0;exitDy=0;exitPerimeter=0;" parent="YqVU-Yj3tgwoMbA_o4SS-4" source="YqVU-Yj3tgwoMbA_o4SS-73" edge="1">
          <mxGeometry relative="1" as="geometry">
            <mxPoint x="1310" y="480" as="targetPoint" />
            <mxPoint x="1150" y="480" as="sourcePoint" />
          </mxGeometry>
        </mxCell>
        <mxCell id="YqVU-Yj3tgwoMbA_o4SS-310" value="PWRITE" style="edgeLabel;html=1;align=center;verticalAlign=middle;resizable=0;points=[];fontSize=14;" parent="YqVU-Yj3tgwoMbA_o4SS-300" vertex="1" connectable="0">
          <mxGeometry x="-0.4225" y="1" relative="1" as="geometry">
            <mxPoint x="27" as="offset" />
          </mxGeometry>
        </mxCell>
        <mxCell id="YqVU-Yj3tgwoMbA_o4SS-301" style="edgeStyle=orthogonalEdgeStyle;rounded=0;orthogonalLoop=1;jettySize=auto;html=1;exitX=0.576;exitY=0.003;exitDx=0;exitDy=0;exitPerimeter=0;" parent="YqVU-Yj3tgwoMbA_o4SS-4" source="YqVU-Yj3tgwoMbA_o4SS-73" edge="1">
          <mxGeometry relative="1" as="geometry">
            <mxPoint x="1310" y="520" as="targetPoint" />
          </mxGeometry>
        </mxCell>
        <mxCell id="YqVU-Yj3tgwoMbA_o4SS-305" value="PSTRB" style="edgeLabel;html=1;align=center;verticalAlign=middle;resizable=0;points=[];fontSize=14;" parent="YqVU-Yj3tgwoMbA_o4SS-301" vertex="1" connectable="0">
          <mxGeometry x="-0.342" y="3" relative="1" as="geometry">
            <mxPoint x="20" as="offset" />
          </mxGeometry>
        </mxCell>
        <mxCell id="YqVU-Yj3tgwoMbA_o4SS-302" style="edgeStyle=orthogonalEdgeStyle;rounded=0;orthogonalLoop=1;jettySize=auto;html=1;exitX=0.637;exitY=0.007;exitDx=0;exitDy=0;exitPerimeter=0;" parent="YqVU-Yj3tgwoMbA_o4SS-4" source="YqVU-Yj3tgwoMbA_o4SS-73" edge="1">
          <mxGeometry relative="1" as="geometry">
            <mxPoint x="1310" y="560" as="targetPoint" />
          </mxGeometry>
        </mxCell>
        <mxCell id="YqVU-Yj3tgwoMbA_o4SS-306" value="PADDR" style="edgeLabel;html=1;align=center;verticalAlign=middle;resizable=0;points=[];fontSize=14;" parent="YqVU-Yj3tgwoMbA_o4SS-302" vertex="1" connectable="0">
          <mxGeometry x="-0.3441" relative="1" as="geometry">
            <mxPoint x="20" as="offset" />
          </mxGeometry>
        </mxCell>
        <mxCell id="nNxSiZorHpoFTgcd2dXO-3" style="edgeStyle=orthogonalEdgeStyle;rounded=0;orthogonalLoop=1;jettySize=auto;html=1;exitX=0.438;exitY=-0.003;exitDx=0;exitDy=0;exitPerimeter=0;" edge="1" parent="YqVU-Yj3tgwoMbA_o4SS-4" source="YqVU-Yj3tgwoMbA_o4SS-73">
          <mxGeometry relative="1" as="geometry">
            <mxPoint x="1310" y="430" as="targetPoint" />
          </mxGeometry>
        </mxCell>
        <mxCell id="nNxSiZorHpoFTgcd2dXO-6" value="&lt;font style=&quot;font-size: 14px;&quot;&gt;PPROT&lt;/font&gt;" style="edgeLabel;html=1;align=center;verticalAlign=middle;resizable=0;points=[];" vertex="1" connectable="0" parent="nNxSiZorHpoFTgcd2dXO-3">
          <mxGeometry x="-0.2133" y="-1" relative="1" as="geometry">
            <mxPoint x="8" as="offset" />
          </mxGeometry>
        </mxCell>
        <mxCell id="nNxSiZorHpoFTgcd2dXO-7" style="edgeStyle=orthogonalEdgeStyle;rounded=0;orthogonalLoop=1;jettySize=auto;html=1;exitX=0.476;exitY=-0.003;exitDx=0;exitDy=0;exitPerimeter=0;" edge="1" parent="YqVU-Yj3tgwoMbA_o4SS-4" source="YqVU-Yj3tgwoMbA_o4SS-73">
          <mxGeometry relative="1" as="geometry">
            <mxPoint x="1310" y="455" as="targetPoint" />
          </mxGeometry>
        </mxCell>
        <mxCell id="nNxSiZorHpoFTgcd2dXO-8" value="&lt;font style=&quot;font-size: 14px;&quot;&gt;PSEL&lt;/font&gt;" style="edgeLabel;html=1;align=center;verticalAlign=middle;resizable=0;points=[];" vertex="1" connectable="0" parent="nNxSiZorHpoFTgcd2dXO-7">
          <mxGeometry x="-0.1513" relative="1" as="geometry">
            <mxPoint x="3" y="-5" as="offset" />
          </mxGeometry>
        </mxCell>
        <mxCell id="nNxSiZorHpoFTgcd2dXO-11" style="edgeStyle=orthogonalEdgeStyle;rounded=0;orthogonalLoop=1;jettySize=auto;html=1;exitX=0.402;exitY=0.002;exitDx=0;exitDy=0;exitPerimeter=0;" edge="1" parent="YqVU-Yj3tgwoMbA_o4SS-4" source="YqVU-Yj3tgwoMbA_o4SS-73">
          <mxGeometry relative="1" as="geometry">
            <mxPoint x="1310" y="406" as="targetPoint" />
          </mxGeometry>
        </mxCell>
        <mxCell id="nNxSiZorHpoFTgcd2dXO-12" value="&lt;font style=&quot;font-size: 14px;&quot;&gt;PENABLE&lt;/font&gt;" style="edgeLabel;html=1;align=center;verticalAlign=middle;resizable=0;points=[];" vertex="1" connectable="0" parent="nNxSiZorHpoFTgcd2dXO-11">
          <mxGeometry x="-0.126" y="-1" relative="1" as="geometry">
            <mxPoint x="2" as="offset" />
          </mxGeometry>
        </mxCell>
        <mxCell id="YqVU-Yj3tgwoMbA_o4SS-73" value="&lt;font size=&quot;1&quot; style=&quot;&quot;&gt;&lt;b style=&quot;font-size: 16px;&quot;&gt;APB MASTER&lt;/b&gt;&lt;/font&gt;" style="rounded=0;whiteSpace=wrap;html=1;rotation=90;fillColor=#dae8fc;strokeColor=#6c8ebf;" parent="YqVU-Yj3tgwoMbA_o4SS-4" vertex="1">
          <mxGeometry x="740" y="392.42" width="657.5" height="156.25" as="geometry" />
        </mxCell>
        <mxCell id="YqVU-Yj3tgwoMbA_o4SS-75" value="&lt;b&gt;&lt;font style=&quot;font-size: 14px;&quot;&gt;FIFO&lt;/font&gt;&lt;/b&gt;" style="rounded=0;whiteSpace=wrap;html=1;fillColor=#e1d5e7;strokeColor=#9673a6;" parent="YqVU-Yj3tgwoMbA_o4SS-4" vertex="1">
          <mxGeometry x="380" y="890" width="170" height="190" as="geometry" />
        </mxCell>
        <mxCell id="YqVU-Yj3tgwoMbA_o4SS-204" style="edgeStyle=orthogonalEdgeStyle;rounded=0;orthogonalLoop=1;jettySize=auto;html=1;exitX=-0.001;exitY=0.483;exitDx=0;exitDy=0;exitPerimeter=0;entryX=0.466;entryY=0.002;entryDx=0;entryDy=0;entryPerimeter=0;" parent="YqVU-Yj3tgwoMbA_o4SS-4" source="YqVU-Yj3tgwoMbA_o4SS-76" target="YqVU-Yj3tgwoMbA_o4SS-27" edge="1">
          <mxGeometry relative="1" as="geometry">
            <mxPoint x="381.07000000000005" y="439.9958200000001" as="sourcePoint" />
            <mxPoint x="125.785" y="453.6505766532762" as="targetPoint" />
          </mxGeometry>
        </mxCell>
        <mxCell id="YqVU-Yj3tgwoMbA_o4SS-205" value="BRESP" style="edgeLabel;html=1;align=center;verticalAlign=middle;resizable=0;points=[];fontSize=14;" parent="YqVU-Yj3tgwoMbA_o4SS-204" vertex="1" connectable="0">
          <mxGeometry x="0.0411" y="-1" relative="1" as="geometry">
            <mxPoint as="offset" />
          </mxGeometry>
        </mxCell>
        <mxCell id="YqVU-Yj3tgwoMbA_o4SS-214" style="edgeStyle=orthogonalEdgeStyle;rounded=0;orthogonalLoop=1;jettySize=auto;html=1;exitX=0;exitY=0.736;exitDx=0;exitDy=0;exitPerimeter=0;entryX=0.721;entryY=0.002;entryDx=0;entryDy=0;entryPerimeter=0;" parent="YqVU-Yj3tgwoMbA_o4SS-4" source="YqVU-Yj3tgwoMbA_o4SS-76" target="YqVU-Yj3tgwoMbA_o4SS-27" edge="1">
          <mxGeometry relative="1" as="geometry">
            <mxPoint x="125.46499999999999" y="607.8075" as="targetPoint" />
            <mxPoint x="381.07" y="622.1924599999999" as="sourcePoint" />
            <Array as="points" />
          </mxGeometry>
        </mxCell>
        <mxCell id="YqVU-Yj3tgwoMbA_o4SS-215" value="ARREADY" style="edgeLabel;html=1;align=center;verticalAlign=middle;resizable=0;points=[];fontSize=14;" parent="YqVU-Yj3tgwoMbA_o4SS-214" vertex="1" connectable="0">
          <mxGeometry x="-0.0671" y="1" relative="1" as="geometry">
            <mxPoint as="offset" />
          </mxGeometry>
        </mxCell>
        <mxCell id="YqVU-Yj3tgwoMbA_o4SS-76" value="&lt;b&gt;&lt;font style=&quot;font-size: 16px;&quot;&gt;CONTROLLER(FSM)&lt;/font&gt;&lt;/b&gt;" style="rounded=0;whiteSpace=wrap;html=1;fillColor=#ffe6cc;strokeColor=#d79b00;" parent="YqVU-Yj3tgwoMbA_o4SS-4" vertex="1">
          <mxGeometry x="381.07" y="140" width="320" height="640" as="geometry" />
        </mxCell>
        <mxCell id="YqVU-Yj3tgwoMbA_o4SS-84" style="edgeStyle=orthogonalEdgeStyle;rounded=0;orthogonalLoop=1;jettySize=auto;html=1;exitX=0.75;exitY=1;exitDx=0;exitDy=0;entryX=0.75;entryY=0;entryDx=0;entryDy=0;" parent="YqVU-Yj3tgwoMbA_o4SS-4" source="YqVU-Yj3tgwoMbA_o4SS-76" target="YqVU-Yj3tgwoMbA_o4SS-75" edge="1">
          <mxGeometry relative="1" as="geometry">
            <mxPoint x="540" y="550" as="targetPoint" />
          </mxGeometry>
        </mxCell>
        <mxCell id="YqVU-Yj3tgwoMbA_o4SS-120" value="runDATA" style="edgeLabel;html=1;align=center;verticalAlign=middle;resizable=0;points=[];fontSize=14;" parent="YqVU-Yj3tgwoMbA_o4SS-84" vertex="1" connectable="0">
          <mxGeometry x="-0.0761" y="1" relative="1" as="geometry">
            <mxPoint as="offset" />
          </mxGeometry>
        </mxCell>
        <mxCell id="YqVU-Yj3tgwoMbA_o4SS-87" style="edgeStyle=orthogonalEdgeStyle;rounded=0;orthogonalLoop=1;jettySize=auto;html=1;exitX=0.5;exitY=1;exitDx=0;exitDy=0;" parent="YqVU-Yj3tgwoMbA_o4SS-4" source="YqVU-Yj3tgwoMbA_o4SS-76" target="YqVU-Yj3tgwoMbA_o4SS-76" edge="1">
          <mxGeometry relative="1" as="geometry" />
        </mxCell>
        <mxCell id="YqVU-Yj3tgwoMbA_o4SS-171" style="edgeStyle=orthogonalEdgeStyle;rounded=0;orthogonalLoop=1;jettySize=auto;html=1;entryX=0.185;entryY=0;entryDx=0;entryDy=0;entryPerimeter=0;" parent="YqVU-Yj3tgwoMbA_o4SS-4" target="YqVU-Yj3tgwoMbA_o4SS-27" edge="1">
          <mxGeometry relative="1" as="geometry">
            <mxPoint x="381.07" y="270" as="sourcePoint" />
            <mxPoint x="130" y="270" as="targetPoint" />
            <Array as="points">
              <mxPoint x="200" y="270" />
            </Array>
          </mxGeometry>
        </mxCell>
        <mxCell id="YqVU-Yj3tgwoMbA_o4SS-271" value="&lt;font style=&quot;font-size: 14px;&quot;&gt;AWREADY&lt;/font&gt;" style="edgeLabel;html=1;align=center;verticalAlign=middle;resizable=0;points=[];" parent="YqVU-Yj3tgwoMbA_o4SS-171" vertex="1" connectable="0">
          <mxGeometry x="0.009" relative="1" as="geometry">
            <mxPoint as="offset" />
          </mxGeometry>
        </mxCell>
        <mxCell id="YqVU-Yj3tgwoMbA_o4SS-182" style="edgeStyle=orthogonalEdgeStyle;rounded=0;orthogonalLoop=1;jettySize=auto;html=1;exitX=0.314;exitY=0.003;exitDx=0;exitDy=0;exitPerimeter=0;entryX=0.002;entryY=0.331;entryDx=0;entryDy=0;entryPerimeter=0;" parent="YqVU-Yj3tgwoMbA_o4SS-4" source="YqVU-Yj3tgwoMbA_o4SS-27" target="YqVU-Yj3tgwoMbA_o4SS-76" edge="1">
          <mxGeometry relative="1" as="geometry">
            <mxPoint x="128.53750000000016" y="352.4163799999999" as="sourcePoint" />
            <mxPoint x="380" y="390" as="targetPoint" />
          </mxGeometry>
        </mxCell>
        <mxCell id="YqVU-Yj3tgwoMbA_o4SS-270" value="WSTRB" style="edgeLabel;html=1;align=center;verticalAlign=middle;resizable=0;points=[];fontSize=14;" parent="YqVU-Yj3tgwoMbA_o4SS-182" vertex="1" connectable="0">
          <mxGeometry x="-0.0277" y="2" relative="1" as="geometry">
            <mxPoint as="offset" />
          </mxGeometry>
        </mxCell>
        <mxCell id="YqVU-Yj3tgwoMbA_o4SS-184" style="edgeStyle=orthogonalEdgeStyle;rounded=0;orthogonalLoop=1;jettySize=auto;html=1;entryX=0.002;entryY=0.156;entryDx=0;entryDy=0;entryPerimeter=0;exitX=0.137;exitY=0.002;exitDx=0;exitDy=0;exitPerimeter=0;" parent="YqVU-Yj3tgwoMbA_o4SS-4" source="YqVU-Yj3tgwoMbA_o4SS-27" target="YqVU-Yj3tgwoMbA_o4SS-76" edge="1">
          <mxGeometry relative="1" as="geometry">
            <Array as="points" />
          </mxGeometry>
        </mxCell>
        <mxCell id="YqVU-Yj3tgwoMbA_o4SS-272" value="Text" style="edgeLabel;html=1;align=center;verticalAlign=middle;resizable=0;points=[];" parent="YqVU-Yj3tgwoMbA_o4SS-184" vertex="1" connectable="0">
          <mxGeometry x="-0.0079" y="1" relative="1" as="geometry">
            <mxPoint as="offset" />
          </mxGeometry>
        </mxCell>
        <mxCell id="YqVU-Yj3tgwoMbA_o4SS-273" value="&lt;font style=&quot;font-size: 14px;&quot;&gt;AWPROT&lt;/font&gt;" style="edgeLabel;html=1;align=center;verticalAlign=middle;resizable=0;points=[];" parent="YqVU-Yj3tgwoMbA_o4SS-184" vertex="1" connectable="0">
          <mxGeometry x="0.0018" relative="1" as="geometry">
            <mxPoint as="offset" />
          </mxGeometry>
        </mxCell>
        <mxCell id="YqVU-Yj3tgwoMbA_o4SS-186" style="edgeStyle=orthogonalEdgeStyle;rounded=0;orthogonalLoop=1;jettySize=auto;html=1;exitX=0.351;exitY=0;exitDx=0;exitDy=0;exitPerimeter=0;entryX=-0.002;entryY=0.37;entryDx=0;entryDy=0;entryPerimeter=0;" parent="YqVU-Yj3tgwoMbA_o4SS-4" source="YqVU-Yj3tgwoMbA_o4SS-27" target="YqVU-Yj3tgwoMbA_o4SS-76" edge="1">
          <mxGeometry relative="1" as="geometry">
            <mxPoint x="130" y="376" as="sourcePoint" />
            <mxPoint x="380" y="380" as="targetPoint" />
            <Array as="points" />
          </mxGeometry>
        </mxCell>
        <mxCell id="YqVU-Yj3tgwoMbA_o4SS-269" value="WVALID" style="edgeLabel;html=1;align=center;verticalAlign=middle;resizable=0;points=[];fontSize=14;" parent="YqVU-Yj3tgwoMbA_o4SS-186" vertex="1" connectable="0">
          <mxGeometry x="-0.021" y="3" relative="1" as="geometry">
            <mxPoint as="offset" />
          </mxGeometry>
        </mxCell>
        <mxCell id="YqVU-Yj3tgwoMbA_o4SS-188" style="edgeStyle=orthogonalEdgeStyle;rounded=0;orthogonalLoop=1;jettySize=auto;html=1;exitX=0;exitY=0.407;exitDx=0;exitDy=0;exitPerimeter=0;entryX=0.389;entryY=0;entryDx=0;entryDy=0;entryPerimeter=0;" parent="YqVU-Yj3tgwoMbA_o4SS-4" source="YqVU-Yj3tgwoMbA_o4SS-76" target="YqVU-Yj3tgwoMbA_o4SS-27" edge="1">
          <mxGeometry relative="1" as="geometry">
            <mxPoint x="380" y="399.99629999999996" as="sourcePoint" />
            <mxPoint x="123.93" y="400.06" as="targetPoint" />
          </mxGeometry>
        </mxCell>
        <mxCell id="YqVU-Yj3tgwoMbA_o4SS-268" value="WREADY" style="edgeLabel;html=1;align=center;verticalAlign=middle;resizable=0;points=[];fontSize=14;" parent="YqVU-Yj3tgwoMbA_o4SS-188" vertex="1" connectable="0">
          <mxGeometry x="0.0107" y="-2" relative="1" as="geometry">
            <mxPoint as="offset" />
          </mxGeometry>
        </mxCell>
        <mxCell id="YqVU-Yj3tgwoMbA_o4SS-190" style="edgeStyle=orthogonalEdgeStyle;rounded=0;orthogonalLoop=1;jettySize=auto;html=1;" parent="YqVU-Yj3tgwoMbA_o4SS-4" source="YqVU-Yj3tgwoMbA_o4SS-76" edge="1">
          <mxGeometry relative="1" as="geometry">
            <mxPoint x="449" y="890" as="targetPoint" />
            <Array as="points">
              <mxPoint x="541" y="820" />
              <mxPoint x="449" y="820" />
            </Array>
          </mxGeometry>
        </mxCell>
        <mxCell id="YqVU-Yj3tgwoMbA_o4SS-199" value="runADDR" style="edgeLabel;html=1;align=center;verticalAlign=middle;resizable=0;points=[];fontSize=14;" parent="YqVU-Yj3tgwoMbA_o4SS-190" vertex="1" connectable="0">
          <mxGeometry x="-0.0991" relative="1" as="geometry">
            <mxPoint as="offset" />
          </mxGeometry>
        </mxCell>
        <mxCell id="YqVU-Yj3tgwoMbA_o4SS-191" style="edgeStyle=orthogonalEdgeStyle;rounded=0;orthogonalLoop=1;jettySize=auto;html=1;" parent="YqVU-Yj3tgwoMbA_o4SS-4" edge="1">
          <mxGeometry relative="1" as="geometry">
            <mxPoint x="100" y="788" as="sourcePoint" />
            <mxPoint x="380" y="920" as="targetPoint" />
            <Array as="points">
              <mxPoint x="100" y="788" />
              <mxPoint x="100" y="920" />
            </Array>
          </mxGeometry>
        </mxCell>
        <mxCell id="YqVU-Yj3tgwoMbA_o4SS-260" value="AWADDR" style="edgeLabel;html=1;align=center;verticalAlign=middle;resizable=0;points=[];fontSize=14;" parent="YqVU-Yj3tgwoMbA_o4SS-191" vertex="1" connectable="0">
          <mxGeometry x="0.085" y="-1" relative="1" as="geometry">
            <mxPoint as="offset" />
          </mxGeometry>
        </mxCell>
        <mxCell id="YqVU-Yj3tgwoMbA_o4SS-206" style="edgeStyle=orthogonalEdgeStyle;rounded=0;orthogonalLoop=1;jettySize=auto;html=1;exitX=-0.005;exitY=0.524;exitDx=0;exitDy=0;entryX=0.505;entryY=0.007;entryDx=0;entryDy=0;exitPerimeter=0;entryPerimeter=0;" parent="YqVU-Yj3tgwoMbA_o4SS-4" source="YqVU-Yj3tgwoMbA_o4SS-76" target="YqVU-Yj3tgwoMbA_o4SS-27" edge="1">
          <mxGeometry relative="1" as="geometry" />
        </mxCell>
        <mxCell id="YqVU-Yj3tgwoMbA_o4SS-207" value="BVALID" style="edgeLabel;html=1;align=center;verticalAlign=middle;resizable=0;points=[];fontSize=14;" parent="YqVU-Yj3tgwoMbA_o4SS-206" vertex="1" connectable="0">
          <mxGeometry x="-0.0331" y="-2" relative="1" as="geometry">
            <mxPoint as="offset" />
          </mxGeometry>
        </mxCell>
        <mxCell id="YqVU-Yj3tgwoMbA_o4SS-208" style="edgeStyle=orthogonalEdgeStyle;rounded=0;orthogonalLoop=1;jettySize=auto;html=1;exitX=0.55;exitY=0.003;exitDx=0;exitDy=0;entryX=0.003;entryY=0.569;entryDx=0;entryDy=0;entryPerimeter=0;exitPerimeter=0;" parent="YqVU-Yj3tgwoMbA_o4SS-4" source="YqVU-Yj3tgwoMbA_o4SS-27" target="YqVU-Yj3tgwoMbA_o4SS-76" edge="1">
          <mxGeometry relative="1" as="geometry">
            <mxPoint x="130.8700000000001" y="500.0034299999999" as="sourcePoint" />
            <mxPoint x="380" y="504.2787800000001" as="targetPoint" />
          </mxGeometry>
        </mxCell>
        <mxCell id="YqVU-Yj3tgwoMbA_o4SS-209" value="BREADY" style="edgeLabel;html=1;align=center;verticalAlign=middle;resizable=0;points=[];fontSize=14;" parent="YqVU-Yj3tgwoMbA_o4SS-208" vertex="1" connectable="0">
          <mxGeometry x="-0.0416" relative="1" as="geometry">
            <mxPoint as="offset" />
          </mxGeometry>
        </mxCell>
        <mxCell id="YqVU-Yj3tgwoMbA_o4SS-210" style="edgeStyle=orthogonalEdgeStyle;rounded=0;orthogonalLoop=1;jettySize=auto;html=1;entryX=0.001;entryY=0.666;entryDx=0;entryDy=0;entryPerimeter=0;" parent="YqVU-Yj3tgwoMbA_o4SS-4" target="YqVU-Yj3tgwoMbA_o4SS-76" edge="1">
          <mxGeometry relative="1" as="geometry">
            <mxPoint x="130" y="567" as="sourcePoint" />
            <mxPoint x="379.1499999999999" y="566.20322" as="targetPoint" />
            <Array as="points">
              <mxPoint x="126" y="567" />
            </Array>
          </mxGeometry>
        </mxCell>
        <mxCell id="YqVU-Yj3tgwoMbA_o4SS-211" value="ARPROT" style="edgeLabel;html=1;align=center;verticalAlign=middle;resizable=0;points=[];fontSize=14;" parent="YqVU-Yj3tgwoMbA_o4SS-210" vertex="1" connectable="0">
          <mxGeometry x="0.0462" y="3" relative="1" as="geometry">
            <mxPoint as="offset" />
          </mxGeometry>
        </mxCell>
        <mxCell id="YqVU-Yj3tgwoMbA_o4SS-212" style="edgeStyle=orthogonalEdgeStyle;rounded=0;orthogonalLoop=1;jettySize=auto;html=1;exitX=0.687;exitY=0.001;exitDx=0;exitDy=0;exitPerimeter=0;entryX=-0.002;entryY=0.701;entryDx=0;entryDy=0;entryPerimeter=0;" parent="YqVU-Yj3tgwoMbA_o4SS-4" source="YqVU-Yj3tgwoMbA_o4SS-27" target="YqVU-Yj3tgwoMbA_o4SS-76" edge="1">
          <mxGeometry relative="1" as="geometry">
            <mxPoint x="130" y="588" as="sourcePoint" />
            <mxPoint x="380.08" y="588.35" as="targetPoint" />
            <Array as="points">
              <mxPoint x="252" y="589" />
            </Array>
          </mxGeometry>
        </mxCell>
        <mxCell id="YqVU-Yj3tgwoMbA_o4SS-266" value="ARVALID" style="edgeLabel;html=1;align=center;verticalAlign=middle;resizable=0;points=[];fontSize=14;" parent="YqVU-Yj3tgwoMbA_o4SS-212" vertex="1" connectable="0">
          <mxGeometry x="0.0165" relative="1" as="geometry">
            <mxPoint as="offset" />
          </mxGeometry>
        </mxCell>
        <mxCell id="YqVU-Yj3tgwoMbA_o4SS-219" style="edgeStyle=orthogonalEdgeStyle;rounded=0;orthogonalLoop=1;jettySize=auto;html=1;exitX=1;exitY=0.25;exitDx=0;exitDy=0;entryX=0.637;entryY=1.003;entryDx=0;entryDy=0;entryPerimeter=0;" parent="YqVU-Yj3tgwoMbA_o4SS-4" source="YqVU-Yj3tgwoMbA_o4SS-75" target="YqVU-Yj3tgwoMbA_o4SS-73" edge="1">
          <mxGeometry relative="1" as="geometry">
            <Array as="points">
              <mxPoint x="550" y="933" />
              <mxPoint x="770" y="933" />
              <mxPoint x="770" y="560" />
              <mxPoint x="990" y="560" />
            </Array>
          </mxGeometry>
        </mxCell>
        <mxCell id="YqVU-Yj3tgwoMbA_o4SS-221" value="PADDR" style="edgeLabel;html=1;align=center;verticalAlign=middle;resizable=0;points=[];fontSize=14;" parent="YqVU-Yj3tgwoMbA_o4SS-219" vertex="1" connectable="0">
          <mxGeometry x="-0.1106" y="3" relative="1" as="geometry">
            <mxPoint as="offset" />
          </mxGeometry>
        </mxCell>
        <mxCell id="YqVU-Yj3tgwoMbA_o4SS-220" style="edgeStyle=orthogonalEdgeStyle;rounded=0;orthogonalLoop=1;jettySize=auto;html=1;exitX=1.001;exitY=0.502;exitDx=0;exitDy=0;exitPerimeter=0;entryX=0.696;entryY=1.005;entryDx=0;entryDy=0;entryPerimeter=0;" parent="YqVU-Yj3tgwoMbA_o4SS-4" source="YqVU-Yj3tgwoMbA_o4SS-75" target="YqVU-Yj3tgwoMbA_o4SS-73" edge="1">
          <mxGeometry relative="1" as="geometry">
            <mxPoint x="981" y="480" as="targetPoint" />
            <Array as="points">
              <mxPoint x="550" y="975" />
              <mxPoint x="850" y="975" />
              <mxPoint x="850" y="600" />
              <mxPoint x="990" y="600" />
            </Array>
          </mxGeometry>
        </mxCell>
        <mxCell id="YqVU-Yj3tgwoMbA_o4SS-222" value="PWDATA" style="edgeLabel;html=1;align=center;verticalAlign=middle;resizable=0;points=[];fontSize=14;" parent="YqVU-Yj3tgwoMbA_o4SS-220" vertex="1" connectable="0">
          <mxGeometry x="0.1093" y="1" relative="1" as="geometry">
            <mxPoint as="offset" />
          </mxGeometry>
        </mxCell>
        <mxCell id="YqVU-Yj3tgwoMbA_o4SS-223" style="edgeStyle=orthogonalEdgeStyle;rounded=0;orthogonalLoop=1;jettySize=auto;html=1;entryX=0.862;entryY=0.001;entryDx=0;entryDy=0;entryPerimeter=0;exitX=0.001;exitY=0.889;exitDx=0;exitDy=0;exitPerimeter=0;" parent="YqVU-Yj3tgwoMbA_o4SS-4" edge="1">
          <mxGeometry relative="1" as="geometry">
            <mxPoint x="381.03999999999985" y="711.1800000000001" as="sourcePoint" />
            <mxPoint x="126.90749999999994" y="710.37294" as="targetPoint" />
            <Array as="points">
              <mxPoint x="380.65" y="710" />
              <mxPoint x="349.65" y="710" />
            </Array>
          </mxGeometry>
        </mxCell>
        <mxCell id="YqVU-Yj3tgwoMbA_o4SS-265" value="RRESP" style="edgeLabel;html=1;align=center;verticalAlign=middle;resizable=0;points=[];fontSize=14;fontStyle=0;labelPosition=center;verticalLabelPosition=middle;" parent="YqVU-Yj3tgwoMbA_o4SS-223" vertex="1" connectable="0">
          <mxGeometry x="0.0077" y="-1" relative="1" as="geometry">
            <mxPoint as="offset" />
          </mxGeometry>
        </mxCell>
        <mxCell id="YqVU-Yj3tgwoMbA_o4SS-225" style="edgeStyle=orthogonalEdgeStyle;rounded=0;orthogonalLoop=1;jettySize=auto;html=1;entryX=0.909;entryY=-0.009;entryDx=0;entryDy=0;entryPerimeter=0;exitX=0.002;exitY=0.936;exitDx=0;exitDy=0;exitPerimeter=0;" parent="YqVU-Yj3tgwoMbA_o4SS-4" edge="1">
          <mxGeometry relative="1" as="geometry">
            <mxPoint x="379.99999999999983" y="730.3199999999999" as="sourcePoint" />
            <mxPoint x="126.82250000000003" y="730.2118299999997" as="targetPoint" />
          </mxGeometry>
        </mxCell>
        <mxCell id="YqVU-Yj3tgwoMbA_o4SS-226" value="RVALID" style="edgeLabel;html=1;align=center;verticalAlign=middle;resizable=0;points=[];fontSize=14;fontStyle=0;labelPosition=center;verticalLabelPosition=middle;" parent="YqVU-Yj3tgwoMbA_o4SS-225" vertex="1" connectable="0">
          <mxGeometry x="-0.0145" y="1" relative="1" as="geometry">
            <mxPoint x="-1" as="offset" />
          </mxGeometry>
        </mxCell>
        <mxCell id="YqVU-Yj3tgwoMbA_o4SS-227" style="edgeStyle=orthogonalEdgeStyle;rounded=0;orthogonalLoop=1;jettySize=auto;html=1;exitX=0.942;exitY=0.004;exitDx=0;exitDy=0;entryX=0.003;entryY=0.953;entryDx=0;entryDy=0;entryPerimeter=0;exitPerimeter=0;" parent="YqVU-Yj3tgwoMbA_o4SS-4" source="YqVU-Yj3tgwoMbA_o4SS-27" target="YqVU-Yj3tgwoMbA_o4SS-76" edge="1">
          <mxGeometry relative="1" as="geometry" />
        </mxCell>
        <mxCell id="YqVU-Yj3tgwoMbA_o4SS-228" value="RREADY" style="edgeLabel;html=1;align=center;verticalAlign=middle;resizable=0;points=[];fontSize=14;fontStyle=0;labelPosition=center;verticalLabelPosition=middle;" parent="YqVU-Yj3tgwoMbA_o4SS-227" vertex="1" connectable="0">
          <mxGeometry x="-0.0209" y="1" relative="1" as="geometry">
            <mxPoint as="offset" />
          </mxGeometry>
        </mxCell>
        <mxCell id="YqVU-Yj3tgwoMbA_o4SS-230" style="edgeStyle=orthogonalEdgeStyle;rounded=0;orthogonalLoop=1;jettySize=auto;html=1;entryX=0.334;entryY=1.001;entryDx=0;entryDy=0;entryPerimeter=0;exitX=1;exitY=0.25;exitDx=0;exitDy=0;" parent="YqVU-Yj3tgwoMbA_o4SS-4" edge="1">
          <mxGeometry relative="1" as="geometry">
            <mxPoint x="701.0699999999999" y="321.01999999999987" as="sourcePoint" />
            <mxPoint x="990.46875" y="319.9999999999999" as="targetPoint" />
          </mxGeometry>
        </mxCell>
        <mxCell id="YqVU-Yj3tgwoMbA_o4SS-231" value="PPROT" style="edgeLabel;html=1;align=center;verticalAlign=middle;resizable=0;points=[];fontSize=14;" parent="YqVU-Yj3tgwoMbA_o4SS-230" vertex="1" connectable="0">
          <mxGeometry x="-0.0203" relative="1" as="geometry">
            <mxPoint as="offset" />
          </mxGeometry>
        </mxCell>
        <mxCell id="YqVU-Yj3tgwoMbA_o4SS-232" style="edgeStyle=orthogonalEdgeStyle;rounded=0;orthogonalLoop=1;jettySize=auto;html=1;exitX=1.003;exitY=0.31;exitDx=0;exitDy=0;entryX=0.331;entryY=1.008;entryDx=0;entryDy=0;entryPerimeter=0;exitPerimeter=0;" parent="YqVU-Yj3tgwoMbA_o4SS-4" target="YqVU-Yj3tgwoMbA_o4SS-73" edge="1">
          <mxGeometry relative="1" as="geometry">
            <mxPoint x="701.0699999999999" y="360.0000000000001" as="sourcePoint" />
            <mxPoint x="988.7275" y="360.0300000000001" as="targetPoint" />
            <Array as="points">
              <mxPoint x="846" y="361" />
              <mxPoint x="846" y="359" />
            </Array>
          </mxGeometry>
        </mxCell>
        <mxCell id="YqVU-Yj3tgwoMbA_o4SS-233" value="PSEL" style="edgeLabel;html=1;align=center;verticalAlign=middle;resizable=0;points=[];fontSize=14;" parent="YqVU-Yj3tgwoMbA_o4SS-232" vertex="1" connectable="0">
          <mxGeometry x="-0.019" relative="1" as="geometry">
            <mxPoint as="offset" />
          </mxGeometry>
        </mxCell>
        <mxCell id="YqVU-Yj3tgwoMbA_o4SS-234" style="edgeStyle=orthogonalEdgeStyle;rounded=0;orthogonalLoop=1;jettySize=auto;html=1;exitX=1;exitY=0.25;exitDx=0;exitDy=0;entryX=0.442;entryY=0.999;entryDx=0;entryDy=0;entryPerimeter=0;" parent="YqVU-Yj3tgwoMbA_o4SS-4" edge="1">
          <mxGeometry relative="1" as="geometry">
            <mxPoint x="701.0699999999999" y="390.01" as="sourcePoint" />
            <mxPoint x="990.78125" y="389.9999999999999" as="targetPoint" />
            <Array as="points">
              <mxPoint x="846" y="391.01" />
            </Array>
          </mxGeometry>
        </mxCell>
        <mxCell id="YqVU-Yj3tgwoMbA_o4SS-235" value="PENABLE" style="edgeLabel;html=1;align=center;verticalAlign=middle;resizable=0;points=[];fontSize=14;" parent="YqVU-Yj3tgwoMbA_o4SS-234" vertex="1" connectable="0">
          <mxGeometry x="0.0999" y="-1" relative="1" as="geometry">
            <mxPoint as="offset" />
          </mxGeometry>
        </mxCell>
        <mxCell id="YqVU-Yj3tgwoMbA_o4SS-236" style="edgeStyle=orthogonalEdgeStyle;rounded=0;orthogonalLoop=1;jettySize=auto;html=1;entryX=0.516;entryY=0.993;entryDx=0;entryDy=0;entryPerimeter=0;exitX=0.999;exitY=0.451;exitDx=0;exitDy=0;exitPerimeter=0;" parent="YqVU-Yj3tgwoMbA_o4SS-4" source="YqVU-Yj3tgwoMbA_o4SS-76" target="YqVU-Yj3tgwoMbA_o4SS-73" edge="1">
          <mxGeometry relative="1" as="geometry">
            <Array as="points" />
          </mxGeometry>
        </mxCell>
        <mxCell id="YqVU-Yj3tgwoMbA_o4SS-237" value="PWRITE" style="edgeLabel;html=1;align=center;verticalAlign=middle;resizable=0;points=[];fontSize=14;" parent="YqVU-Yj3tgwoMbA_o4SS-236" vertex="1" connectable="0">
          <mxGeometry x="0.0032" relative="1" as="geometry">
            <mxPoint as="offset" />
          </mxGeometry>
        </mxCell>
        <mxCell id="YqVU-Yj3tgwoMbA_o4SS-238" style="edgeStyle=orthogonalEdgeStyle;rounded=0;orthogonalLoop=1;jettySize=auto;html=1;entryX=0.577;entryY=0.996;entryDx=0;entryDy=0;entryPerimeter=0;exitX=1;exitY=0.596;exitDx=0;exitDy=0;exitPerimeter=0;" parent="YqVU-Yj3tgwoMbA_o4SS-4" source="YqVU-Yj3tgwoMbA_o4SS-76" target="YqVU-Yj3tgwoMbA_o4SS-73" edge="1">
          <mxGeometry relative="1" as="geometry">
            <Array as="points">
              <mxPoint x="703" y="521" />
            </Array>
          </mxGeometry>
        </mxCell>
        <mxCell id="YqVU-Yj3tgwoMbA_o4SS-239" value="PSTRB" style="edgeLabel;html=1;align=center;verticalAlign=middle;resizable=0;points=[];fontSize=14;" parent="YqVU-Yj3tgwoMbA_o4SS-238" vertex="1" connectable="0">
          <mxGeometry x="-0.0444" relative="1" as="geometry">
            <mxPoint as="offset" />
          </mxGeometry>
        </mxCell>
        <mxCell id="YqVU-Yj3tgwoMbA_o4SS-240" style="edgeStyle=orthogonalEdgeStyle;rounded=0;orthogonalLoop=1;jettySize=auto;html=1;entryX=0.998;entryY=0.141;entryDx=0;entryDy=0;entryPerimeter=0;exitX=0.134;exitY=0.999;exitDx=0;exitDy=0;exitPerimeter=0;" parent="YqVU-Yj3tgwoMbA_o4SS-4" source="YqVU-Yj3tgwoMbA_o4SS-73" edge="1">
          <mxGeometry relative="1" as="geometry">
            <mxPoint x="990" y="230" as="sourcePoint" />
            <mxPoint x="701.0799999999998" y="230.24" as="targetPoint" />
            <Array as="points">
              <mxPoint x="701" y="230" />
            </Array>
          </mxGeometry>
        </mxCell>
        <mxCell id="YqVU-Yj3tgwoMbA_o4SS-241" value="PREADY" style="edgeLabel;html=1;align=center;verticalAlign=middle;resizable=0;points=[];fontSize=14;" parent="YqVU-Yj3tgwoMbA_o4SS-240" vertex="1" connectable="0">
          <mxGeometry x="0.1478" y="-1" relative="1" as="geometry">
            <mxPoint as="offset" />
          </mxGeometry>
        </mxCell>
        <mxCell id="YqVU-Yj3tgwoMbA_o4SS-242" style="edgeStyle=orthogonalEdgeStyle;rounded=0;orthogonalLoop=1;jettySize=auto;html=1;entryX=1;entryY=0.062;entryDx=0;entryDy=0;entryPerimeter=0;" parent="YqVU-Yj3tgwoMbA_o4SS-4" target="YqVU-Yj3tgwoMbA_o4SS-76" edge="1">
          <mxGeometry relative="1" as="geometry">
            <mxPoint x="991" y="182" as="sourcePoint" />
            <mxPoint x="701.07" y="160" as="targetPoint" />
            <Array as="points">
              <mxPoint x="991" y="182" />
              <mxPoint x="846" y="181" />
              <mxPoint x="846" y="180" />
            </Array>
          </mxGeometry>
        </mxCell>
        <mxCell id="YqVU-Yj3tgwoMbA_o4SS-243" value="PSLVERR" style="edgeLabel;html=1;align=center;verticalAlign=middle;resizable=0;points=[];fontSize=14;" parent="YqVU-Yj3tgwoMbA_o4SS-242" vertex="1" connectable="0">
          <mxGeometry x="-0.022" y="-2" relative="1" as="geometry">
            <mxPoint as="offset" />
          </mxGeometry>
        </mxCell>
        <mxCell id="YqVU-Yj3tgwoMbA_o4SS-247" style="edgeStyle=orthogonalEdgeStyle;rounded=0;orthogonalLoop=1;jettySize=auto;html=1;entryX=0;entryY=0.316;entryDx=0;entryDy=0;entryPerimeter=0;" parent="YqVU-Yj3tgwoMbA_o4SS-4" target="YqVU-Yj3tgwoMbA_o4SS-75" edge="1">
          <mxGeometry relative="1" as="geometry">
            <mxPoint x="380" y="950" as="targetPoint" />
            <Array as="points">
              <mxPoint x="70" y="788" />
              <mxPoint x="70" y="950" />
            </Array>
            <mxPoint x="70" y="788" as="sourcePoint" />
          </mxGeometry>
        </mxCell>
        <mxCell id="YqVU-Yj3tgwoMbA_o4SS-248" value="WDATA" style="edgeLabel;html=1;align=center;verticalAlign=middle;resizable=0;points=[];fontSize=14;" parent="YqVU-Yj3tgwoMbA_o4SS-247" vertex="1" connectable="0">
          <mxGeometry x="0.2227" y="1" relative="1" as="geometry">
            <mxPoint as="offset" />
          </mxGeometry>
        </mxCell>
        <mxCell id="YqVU-Yj3tgwoMbA_o4SS-249" style="edgeStyle=orthogonalEdgeStyle;rounded=0;orthogonalLoop=1;jettySize=auto;html=1;" parent="YqVU-Yj3tgwoMbA_o4SS-4" target="YqVU-Yj3tgwoMbA_o4SS-75" edge="1">
          <mxGeometry relative="1" as="geometry">
            <mxPoint x="40" y="788" as="sourcePoint" />
            <mxPoint x="381" y="990" as="targetPoint" />
            <Array as="points">
              <mxPoint x="40" y="980" />
            </Array>
          </mxGeometry>
        </mxCell>
        <mxCell id="YqVU-Yj3tgwoMbA_o4SS-287" value="ARADDR" style="edgeLabel;html=1;align=center;verticalAlign=middle;resizable=0;points=[];fontSize=14;" parent="YqVU-Yj3tgwoMbA_o4SS-249" vertex="1" connectable="0">
          <mxGeometry x="0.2619" y="1" relative="1" as="geometry">
            <mxPoint as="offset" />
          </mxGeometry>
        </mxCell>
        <mxCell id="YqVU-Yj3tgwoMbA_o4SS-255" style="edgeStyle=orthogonalEdgeStyle;rounded=0;orthogonalLoop=1;jettySize=auto;html=1;exitX=0.002;exitY=0.687;exitDx=0;exitDy=0;entryX=1.002;entryY=0.869;entryDx=0;entryDy=0;entryPerimeter=0;exitPerimeter=0;" parent="YqVU-Yj3tgwoMbA_o4SS-4" source="YqVU-Yj3tgwoMbA_o4SS-75" target="YqVU-Yj3tgwoMbA_o4SS-27" edge="1">
          <mxGeometry relative="1" as="geometry">
            <mxPoint x="16" y="790" as="targetPoint" />
            <Array as="points">
              <mxPoint x="17" y="1007" />
            </Array>
          </mxGeometry>
        </mxCell>
        <mxCell id="YqVU-Yj3tgwoMbA_o4SS-256" value="RDATA" style="edgeLabel;html=1;align=center;verticalAlign=middle;resizable=0;points=[];fontSize=14;" parent="YqVU-Yj3tgwoMbA_o4SS-255" vertex="1" connectable="0">
          <mxGeometry x="-0.3558" y="-2" relative="1" as="geometry">
            <mxPoint as="offset" />
          </mxGeometry>
        </mxCell>
        <mxCell id="YqVU-Yj3tgwoMbA_o4SS-279" value="" style="endArrow=classic;html=1;rounded=0;entryX=0;entryY=0.5;entryDx=0;entryDy=0;" parent="YqVU-Yj3tgwoMbA_o4SS-4" target="YqVU-Yj3tgwoMbA_o4SS-73" edge="1">
          <mxGeometry width="50" height="50" relative="1" as="geometry">
            <mxPoint x="-160" y="180" as="sourcePoint" />
            <mxPoint x="1019.6875" y="49.375" as="targetPoint" />
            <Array as="points">
              <mxPoint x="-160" y="90" />
              <mxPoint x="-160" y="40" />
              <mxPoint x="450" y="40" />
              <mxPoint x="760" y="40" />
              <mxPoint x="910" y="40" />
              <mxPoint x="980" y="40" />
              <mxPoint x="1069" y="40" />
            </Array>
          </mxGeometry>
        </mxCell>
        <mxCell id="YqVU-Yj3tgwoMbA_o4SS-280" value="&lt;font style=&quot;font-size: 14px;&quot;&gt;PCLK&lt;/font&gt;" style="edgeLabel;html=1;align=center;verticalAlign=middle;resizable=0;points=[];" parent="YqVU-Yj3tgwoMbA_o4SS-279" vertex="1" connectable="0">
          <mxGeometry x="-0.121" y="-3" relative="1" as="geometry">
            <mxPoint x="-1" as="offset" />
          </mxGeometry>
        </mxCell>
        <mxCell id="YqVU-Yj3tgwoMbA_o4SS-291" value="" style="endArrow=classic;html=1;rounded=0;entryX=0.002;entryY=0.061;entryDx=0;entryDy=0;entryPerimeter=0;" parent="YqVU-Yj3tgwoMbA_o4SS-4" target="YqVU-Yj3tgwoMbA_o4SS-76" edge="1">
          <mxGeometry width="50" height="50" relative="1" as="geometry">
            <mxPoint x="-70" y="200" as="sourcePoint" />
            <mxPoint x="290" y="220" as="targetPoint" />
            <Array as="points">
              <mxPoint x="-70" y="80" />
              <mxPoint x="250" y="80" />
              <mxPoint x="250" y="179" />
            </Array>
          </mxGeometry>
        </mxCell>
        <mxCell id="YqVU-Yj3tgwoMbA_o4SS-292" value="&lt;font style=&quot;font-size: 14px;&quot;&gt;RESET_FSM&lt;/font&gt;" style="edgeLabel;html=1;align=center;verticalAlign=middle;resizable=0;points=[];" parent="YqVU-Yj3tgwoMbA_o4SS-291" vertex="1" connectable="0">
          <mxGeometry x="0.5071" y="-1" relative="1" as="geometry">
            <mxPoint as="offset" />
          </mxGeometry>
        </mxCell>
        <mxCell id="YqVU-Yj3tgwoMbA_o4SS-297" value="" style="endArrow=classic;html=1;rounded=0;entryX=0.043;entryY=0.994;entryDx=0;entryDy=0;entryPerimeter=0;" parent="YqVU-Yj3tgwoMbA_o4SS-4" edge="1">
          <mxGeometry width="50" height="50" relative="1" as="geometry">
            <mxPoint x="250" y="80" as="sourcePoint" />
            <mxPoint x="991.5625" y="160.0675" as="targetPoint" />
            <Array as="points">
              <mxPoint x="640" y="80" />
              <mxPoint x="830" y="80" />
              <mxPoint x="830" y="160" />
            </Array>
          </mxGeometry>
        </mxCell>
        <mxCell id="YqVU-Yj3tgwoMbA_o4SS-298" value="&lt;font style=&quot;font-size: 14px;&quot;&gt;PRESET&lt;/font&gt;" style="edgeLabel;html=1;align=center;verticalAlign=middle;resizable=0;points=[];" parent="YqVU-Yj3tgwoMbA_o4SS-297" vertex="1" connectable="0">
          <mxGeometry x="0.7514" y="3" relative="1" as="geometry">
            <mxPoint x="-1" as="offset" />
          </mxGeometry>
        </mxCell>
        <mxCell id="YqVU-Yj3tgwoMbA_o4SS-7" value="" style="endArrow=classic;html=1;rounded=0;entryX=0.043;entryY=1.001;entryDx=0;entryDy=0;entryPerimeter=0;" parent="1" target="YqVU-Yj3tgwoMbA_o4SS-27" edge="1">
          <mxGeometry width="50" height="50" relative="1" as="geometry">
            <mxPoint x="80" y="260" as="sourcePoint" />
            <mxPoint x="350" y="265" as="targetPoint" />
          </mxGeometry>
        </mxCell>
        <mxCell id="YqVU-Yj3tgwoMbA_o4SS-285" value="&lt;font style=&quot;font-size: 14px;&quot;&gt;ACLK&lt;/font&gt;" style="edgeLabel;html=1;align=center;verticalAlign=middle;resizable=0;points=[];" parent="YqVU-Yj3tgwoMbA_o4SS-7" vertex="1" connectable="0">
          <mxGeometry x="0.1461" y="1" relative="1" as="geometry">
            <mxPoint as="offset" />
          </mxGeometry>
        </mxCell>
        <mxCell id="YqVU-Yj3tgwoMbA_o4SS-9" value="" style="edgeStyle=none;orthogonalLoop=1;jettySize=auto;html=1;rounded=0;" parent="1" edge="1">
          <mxGeometry width="100" relative="1" as="geometry">
            <mxPoint x="140" y="280" as="sourcePoint" />
            <mxPoint x="350" y="280" as="targetPoint" />
            <Array as="points" />
          </mxGeometry>
        </mxCell>
        <mxCell id="YqVU-Yj3tgwoMbA_o4SS-10" value="&lt;font style=&quot;font-size: 14px;&quot;&gt;ARESETn&lt;/font&gt;" style="edgeLabel;html=1;align=center;verticalAlign=middle;resizable=0;points=[];" parent="YqVU-Yj3tgwoMbA_o4SS-9" vertex="1" connectable="0">
          <mxGeometry x="-0.1406" y="2" relative="1" as="geometry">
            <mxPoint as="offset" />
          </mxGeometry>
        </mxCell>
        <mxCell id="YqVU-Yj3tgwoMbA_o4SS-11" value="" style="edgeStyle=none;orthogonalLoop=1;jettySize=auto;html=1;rounded=0;" parent="1" edge="1">
          <mxGeometry width="100" relative="1" as="geometry">
            <mxPoint x="180" y="320" as="sourcePoint" />
            <mxPoint x="350" y="320" as="targetPoint" />
            <Array as="points" />
          </mxGeometry>
        </mxCell>
        <mxCell id="YqVU-Yj3tgwoMbA_o4SS-12" value="&lt;font style=&quot;font-size: 14px;&quot;&gt;AWADDR&lt;/font&gt;" style="edgeLabel;html=1;align=center;verticalAlign=middle;resizable=0;points=[];" parent="YqVU-Yj3tgwoMbA_o4SS-11" vertex="1" connectable="0">
          <mxGeometry x="-0.1406" y="2" relative="1" as="geometry">
            <mxPoint as="offset" />
          </mxGeometry>
        </mxCell>
        <mxCell id="YqVU-Yj3tgwoMbA_o4SS-13" value="" style="edgeStyle=none;orthogonalLoop=1;jettySize=auto;html=1;rounded=0;" parent="1" edge="1">
          <mxGeometry width="100" relative="1" as="geometry">
            <mxPoint x="180" y="440" as="sourcePoint" />
            <mxPoint x="350" y="440" as="targetPoint" />
            <Array as="points" />
          </mxGeometry>
        </mxCell>
        <mxCell id="YqVU-Yj3tgwoMbA_o4SS-14" value="&lt;font style=&quot;font-size: 14px;&quot;&gt;WDATA&lt;/font&gt;" style="edgeLabel;html=1;align=center;verticalAlign=middle;resizable=0;points=[];" parent="YqVU-Yj3tgwoMbA_o4SS-13" vertex="1" connectable="0">
          <mxGeometry x="-0.1406" y="2" relative="1" as="geometry">
            <mxPoint as="offset" />
          </mxGeometry>
        </mxCell>
        <mxCell id="YqVU-Yj3tgwoMbA_o4SS-17" value="" style="edgeStyle=none;orthogonalLoop=1;jettySize=auto;html=1;rounded=0;" parent="1" edge="1">
          <mxGeometry width="100" relative="1" as="geometry">
            <mxPoint x="180" y="340" as="sourcePoint" />
            <mxPoint x="350" y="340" as="targetPoint" />
            <Array as="points" />
          </mxGeometry>
        </mxCell>
        <mxCell id="YqVU-Yj3tgwoMbA_o4SS-18" value="&lt;span style=&quot;font-size: 14px;&quot;&gt;AWPROT&lt;/span&gt;" style="edgeLabel;html=1;align=center;verticalAlign=middle;resizable=0;points=[];" parent="YqVU-Yj3tgwoMbA_o4SS-17" vertex="1" connectable="0">
          <mxGeometry x="-0.1406" y="2" relative="1" as="geometry">
            <mxPoint as="offset" />
          </mxGeometry>
        </mxCell>
        <mxCell id="YqVU-Yj3tgwoMbA_o4SS-19" value="" style="edgeStyle=none;orthogonalLoop=1;jettySize=auto;html=1;rounded=0;" parent="1" edge="1">
          <mxGeometry width="100" relative="1" as="geometry">
            <mxPoint x="180" y="360" as="sourcePoint" />
            <mxPoint x="350" y="360" as="targetPoint" />
            <Array as="points" />
          </mxGeometry>
        </mxCell>
        <mxCell id="YqVU-Yj3tgwoMbA_o4SS-20" value="&lt;span style=&quot;font-size: 14px;&quot;&gt;AWVALID&lt;/span&gt;" style="edgeLabel;html=1;align=center;verticalAlign=middle;resizable=0;points=[];" parent="YqVU-Yj3tgwoMbA_o4SS-19" vertex="1" connectable="0">
          <mxGeometry x="-0.1406" y="2" relative="1" as="geometry">
            <mxPoint as="offset" />
          </mxGeometry>
        </mxCell>
        <mxCell id="YqVU-Yj3tgwoMbA_o4SS-37" style="edgeStyle=orthogonalEdgeStyle;rounded=0;orthogonalLoop=1;jettySize=auto;html=1;exitX=0.5;exitY=1;exitDx=0;exitDy=0;" parent="1" edge="1">
          <mxGeometry relative="1" as="geometry">
            <mxPoint x="180" y="379.6" as="targetPoint" />
            <mxPoint x="350" y="379.6" as="sourcePoint" />
          </mxGeometry>
        </mxCell>
        <mxCell id="YqVU-Yj3tgwoMbA_o4SS-38" value="&lt;font style=&quot;font-size: 14px;&quot;&gt;AWREADY&lt;/font&gt;" style="edgeLabel;html=1;align=center;verticalAlign=middle;resizable=0;points=[];" parent="YqVU-Yj3tgwoMbA_o4SS-37" vertex="1" connectable="0">
          <mxGeometry x="0.1733" relative="1" as="geometry">
            <mxPoint as="offset" />
          </mxGeometry>
        </mxCell>
        <mxCell id="YqVU-Yj3tgwoMbA_o4SS-40" value="" style="edgeStyle=none;orthogonalLoop=1;jettySize=auto;html=1;rounded=0;" parent="1" edge="1">
          <mxGeometry width="100" relative="1" as="geometry">
            <mxPoint x="180" y="460" as="sourcePoint" />
            <mxPoint x="350" y="460" as="targetPoint" />
            <Array as="points" />
          </mxGeometry>
        </mxCell>
        <mxCell id="YqVU-Yj3tgwoMbA_o4SS-41" value="&lt;font style=&quot;font-size: 14px;&quot;&gt;WSTRB&lt;/font&gt;" style="edgeLabel;html=1;align=center;verticalAlign=middle;resizable=0;points=[];" parent="YqVU-Yj3tgwoMbA_o4SS-40" vertex="1" connectable="0">
          <mxGeometry x="-0.1406" y="2" relative="1" as="geometry">
            <mxPoint as="offset" />
          </mxGeometry>
        </mxCell>
        <mxCell id="YqVU-Yj3tgwoMbA_o4SS-42" value="" style="edgeStyle=none;orthogonalLoop=1;jettySize=auto;html=1;rounded=0;entryX=0.907;entryY=1.032;entryDx=0;entryDy=0;entryPerimeter=0;" parent="1" edge="1">
          <mxGeometry width="100" relative="1" as="geometry">
            <mxPoint x="183.2" y="480.18" as="sourcePoint" />
            <mxPoint x="349.99999999999994" y="480.00000000000006" as="targetPoint" />
            <Array as="points" />
          </mxGeometry>
        </mxCell>
        <mxCell id="YqVU-Yj3tgwoMbA_o4SS-43" value="&lt;span style=&quot;font-size: 14px;&quot;&gt;WVALID&lt;/span&gt;" style="edgeLabel;html=1;align=center;verticalAlign=middle;resizable=0;points=[];" parent="YqVU-Yj3tgwoMbA_o4SS-42" vertex="1" connectable="0">
          <mxGeometry x="-0.1406" y="2" relative="1" as="geometry">
            <mxPoint as="offset" />
          </mxGeometry>
        </mxCell>
        <mxCell id="YqVU-Yj3tgwoMbA_o4SS-44" style="edgeStyle=orthogonalEdgeStyle;rounded=0;orthogonalLoop=1;jettySize=auto;html=1;exitX=0.5;exitY=1;exitDx=0;exitDy=0;" parent="1" edge="1">
          <mxGeometry relative="1" as="geometry">
            <mxPoint x="180" y="500" as="targetPoint" />
            <mxPoint x="350" y="500" as="sourcePoint" />
          </mxGeometry>
        </mxCell>
        <mxCell id="YqVU-Yj3tgwoMbA_o4SS-45" value="&lt;font style=&quot;font-size: 14px;&quot;&gt;WREADY&lt;/font&gt;" style="edgeLabel;html=1;align=center;verticalAlign=middle;resizable=0;points=[];" parent="YqVU-Yj3tgwoMbA_o4SS-44" vertex="1" connectable="0">
          <mxGeometry x="0.1733" relative="1" as="geometry">
            <mxPoint as="offset" />
          </mxGeometry>
        </mxCell>
        <mxCell id="YqVU-Yj3tgwoMbA_o4SS-46" style="edgeStyle=orthogonalEdgeStyle;rounded=0;orthogonalLoop=1;jettySize=auto;html=1;exitX=0.5;exitY=1;exitDx=0;exitDy=0;" parent="1" edge="1">
          <mxGeometry relative="1" as="geometry">
            <mxPoint x="180" y="550" as="targetPoint" />
            <mxPoint x="350" y="550" as="sourcePoint" />
          </mxGeometry>
        </mxCell>
        <mxCell id="YqVU-Yj3tgwoMbA_o4SS-47" value="&lt;font style=&quot;font-size: 14px;&quot;&gt;BRESP&lt;/font&gt;" style="edgeLabel;html=1;align=center;verticalAlign=middle;resizable=0;points=[];" parent="YqVU-Yj3tgwoMbA_o4SS-46" vertex="1" connectable="0">
          <mxGeometry x="0.1733" relative="1" as="geometry">
            <mxPoint as="offset" />
          </mxGeometry>
        </mxCell>
        <mxCell id="YqVU-Yj3tgwoMbA_o4SS-48" style="edgeStyle=orthogonalEdgeStyle;rounded=0;orthogonalLoop=1;jettySize=auto;html=1;exitX=0.5;exitY=1;exitDx=0;exitDy=0;" parent="1" edge="1">
          <mxGeometry relative="1" as="geometry">
            <mxPoint x="180" y="570" as="targetPoint" />
            <mxPoint x="350" y="570" as="sourcePoint" />
          </mxGeometry>
        </mxCell>
        <mxCell id="YqVU-Yj3tgwoMbA_o4SS-49" value="&lt;font style=&quot;font-size: 14px;&quot;&gt;BVALID&lt;/font&gt;" style="edgeLabel;html=1;align=center;verticalAlign=middle;resizable=0;points=[];" parent="YqVU-Yj3tgwoMbA_o4SS-48" vertex="1" connectable="0">
          <mxGeometry x="0.1733" relative="1" as="geometry">
            <mxPoint as="offset" />
          </mxGeometry>
        </mxCell>
        <mxCell id="YqVU-Yj3tgwoMbA_o4SS-50" value="" style="edgeStyle=none;orthogonalLoop=1;jettySize=auto;html=1;rounded=0;entryX=0.907;entryY=1.032;entryDx=0;entryDy=0;entryPerimeter=0;" parent="1" edge="1">
          <mxGeometry width="100" relative="1" as="geometry">
            <mxPoint x="183.2" y="585.1800000000001" as="sourcePoint" />
            <mxPoint x="349.99999999999994" y="585" as="targetPoint" />
            <Array as="points" />
          </mxGeometry>
        </mxCell>
        <mxCell id="YqVU-Yj3tgwoMbA_o4SS-51" value="&lt;span style=&quot;font-size: 14px;&quot;&gt;BREADY&lt;/span&gt;" style="edgeLabel;html=1;align=center;verticalAlign=middle;resizable=0;points=[];" parent="YqVU-Yj3tgwoMbA_o4SS-50" vertex="1" connectable="0">
          <mxGeometry x="-0.1406" y="2" relative="1" as="geometry">
            <mxPoint as="offset" />
          </mxGeometry>
        </mxCell>
        <mxCell id="YqVU-Yj3tgwoMbA_o4SS-52" value="" style="edgeStyle=none;orthogonalLoop=1;jettySize=auto;html=1;rounded=0;entryX=0.907;entryY=1.032;entryDx=0;entryDy=0;entryPerimeter=0;" parent="1" edge="1">
          <mxGeometry width="100" relative="1" as="geometry">
            <mxPoint x="183.2" y="680.1800000000001" as="sourcePoint" />
            <mxPoint x="349.99999999999994" y="680" as="targetPoint" />
            <Array as="points" />
          </mxGeometry>
        </mxCell>
        <mxCell id="YqVU-Yj3tgwoMbA_o4SS-53" value="&lt;span style=&quot;font-size: 14px;&quot;&gt;ARADDR&lt;/span&gt;" style="edgeLabel;html=1;align=center;verticalAlign=middle;resizable=0;points=[];" parent="YqVU-Yj3tgwoMbA_o4SS-52" vertex="1" connectable="0">
          <mxGeometry x="-0.1406" y="2" relative="1" as="geometry">
            <mxPoint as="offset" />
          </mxGeometry>
        </mxCell>
        <mxCell id="YqVU-Yj3tgwoMbA_o4SS-54" value="" style="edgeStyle=none;orthogonalLoop=1;jettySize=auto;html=1;rounded=0;entryX=0.907;entryY=1.032;entryDx=0;entryDy=0;entryPerimeter=0;" parent="1" edge="1">
          <mxGeometry width="100" relative="1" as="geometry">
            <mxPoint x="183.2" y="700.1800000000001" as="sourcePoint" />
            <mxPoint x="349.99999999999994" y="700" as="targetPoint" />
            <Array as="points" />
          </mxGeometry>
        </mxCell>
        <mxCell id="YqVU-Yj3tgwoMbA_o4SS-55" value="&lt;span style=&quot;font-size: 14px;&quot;&gt;ARPROT&lt;/span&gt;" style="edgeLabel;html=1;align=center;verticalAlign=middle;resizable=0;points=[];" parent="YqVU-Yj3tgwoMbA_o4SS-54" vertex="1" connectable="0">
          <mxGeometry x="-0.1406" y="2" relative="1" as="geometry">
            <mxPoint as="offset" />
          </mxGeometry>
        </mxCell>
        <mxCell id="YqVU-Yj3tgwoMbA_o4SS-56" value="" style="edgeStyle=none;orthogonalLoop=1;jettySize=auto;html=1;rounded=0;entryX=0.907;entryY=1.032;entryDx=0;entryDy=0;entryPerimeter=0;" parent="1" edge="1">
          <mxGeometry width="100" relative="1" as="geometry">
            <mxPoint x="183.2" y="720.1800000000001" as="sourcePoint" />
            <mxPoint x="349.99999999999994" y="720" as="targetPoint" />
            <Array as="points" />
          </mxGeometry>
        </mxCell>
        <mxCell id="YqVU-Yj3tgwoMbA_o4SS-57" value="&lt;span style=&quot;font-size: 14px;&quot;&gt;ARVALID&lt;/span&gt;" style="edgeLabel;html=1;align=center;verticalAlign=middle;resizable=0;points=[];" parent="YqVU-Yj3tgwoMbA_o4SS-56" vertex="1" connectable="0">
          <mxGeometry x="-0.1406" y="2" relative="1" as="geometry">
            <mxPoint as="offset" />
          </mxGeometry>
        </mxCell>
        <mxCell id="YqVU-Yj3tgwoMbA_o4SS-60" style="edgeStyle=orthogonalEdgeStyle;rounded=0;orthogonalLoop=1;jettySize=auto;html=1;exitX=0.5;exitY=1;exitDx=0;exitDy=0;" parent="1" edge="1">
          <mxGeometry relative="1" as="geometry">
            <mxPoint x="180" y="740" as="targetPoint" />
            <mxPoint x="350" y="740" as="sourcePoint" />
          </mxGeometry>
        </mxCell>
        <mxCell id="YqVU-Yj3tgwoMbA_o4SS-61" value="&lt;font style=&quot;font-size: 14px;&quot;&gt;ARREADY&lt;/font&gt;" style="edgeLabel;html=1;align=center;verticalAlign=middle;resizable=0;points=[];" parent="YqVU-Yj3tgwoMbA_o4SS-60" vertex="1" connectable="0">
          <mxGeometry x="0.1733" relative="1" as="geometry">
            <mxPoint as="offset" />
          </mxGeometry>
        </mxCell>
        <mxCell id="YqVU-Yj3tgwoMbA_o4SS-62" style="edgeStyle=orthogonalEdgeStyle;rounded=0;orthogonalLoop=1;jettySize=auto;html=1;exitX=0.5;exitY=1;exitDx=0;exitDy=0;" parent="1" edge="1">
          <mxGeometry relative="1" as="geometry">
            <mxPoint x="180" y="790" as="targetPoint" />
            <mxPoint x="350" y="790" as="sourcePoint" />
          </mxGeometry>
        </mxCell>
        <mxCell id="YqVU-Yj3tgwoMbA_o4SS-63" value="&lt;font style=&quot;font-size: 14px;&quot;&gt;RDATA&lt;/font&gt;" style="edgeLabel;html=1;align=center;verticalAlign=middle;resizable=0;points=[];" parent="YqVU-Yj3tgwoMbA_o4SS-62" vertex="1" connectable="0">
          <mxGeometry x="0.1733" relative="1" as="geometry">
            <mxPoint as="offset" />
          </mxGeometry>
        </mxCell>
        <mxCell id="YqVU-Yj3tgwoMbA_o4SS-64" style="edgeStyle=orthogonalEdgeStyle;rounded=0;orthogonalLoop=1;jettySize=auto;html=1;exitX=0.5;exitY=1;exitDx=0;exitDy=0;" parent="1" edge="1">
          <mxGeometry relative="1" as="geometry">
            <mxPoint x="180" y="810" as="targetPoint" />
            <mxPoint x="350" y="810" as="sourcePoint" />
          </mxGeometry>
        </mxCell>
        <mxCell id="YqVU-Yj3tgwoMbA_o4SS-65" value="&lt;font style=&quot;font-size: 14px;&quot;&gt;RRESP&lt;/font&gt;" style="edgeLabel;html=1;align=center;verticalAlign=middle;resizable=0;points=[];" parent="YqVU-Yj3tgwoMbA_o4SS-64" vertex="1" connectable="0">
          <mxGeometry x="0.1733" relative="1" as="geometry">
            <mxPoint as="offset" />
          </mxGeometry>
        </mxCell>
        <mxCell id="YqVU-Yj3tgwoMbA_o4SS-66" style="edgeStyle=orthogonalEdgeStyle;rounded=0;orthogonalLoop=1;jettySize=auto;html=1;exitX=0.5;exitY=1;exitDx=0;exitDy=0;" parent="1" edge="1">
          <mxGeometry relative="1" as="geometry">
            <mxPoint x="180" y="830" as="targetPoint" />
            <mxPoint x="350" y="830" as="sourcePoint" />
          </mxGeometry>
        </mxCell>
        <mxCell id="YqVU-Yj3tgwoMbA_o4SS-67" value="&lt;font style=&quot;font-size: 14px;&quot;&gt;RVALID&lt;/font&gt;" style="edgeLabel;html=1;align=center;verticalAlign=middle;resizable=0;points=[];" parent="YqVU-Yj3tgwoMbA_o4SS-66" vertex="1" connectable="0">
          <mxGeometry x="0.1733" relative="1" as="geometry">
            <mxPoint as="offset" />
          </mxGeometry>
        </mxCell>
        <mxCell id="YqVU-Yj3tgwoMbA_o4SS-70" value="" style="edgeStyle=none;orthogonalLoop=1;jettySize=auto;html=1;rounded=0;entryX=0.907;entryY=1.032;entryDx=0;entryDy=0;entryPerimeter=0;" parent="1" edge="1">
          <mxGeometry width="100" relative="1" as="geometry">
            <mxPoint x="183.2" y="850.1800000000001" as="sourcePoint" />
            <mxPoint x="349.99999999999994" y="850" as="targetPoint" />
            <Array as="points" />
          </mxGeometry>
        </mxCell>
        <mxCell id="YqVU-Yj3tgwoMbA_o4SS-71" value="&lt;span style=&quot;font-size: 14px;&quot;&gt;RREADY&lt;/span&gt;" style="edgeLabel;html=1;align=center;verticalAlign=middle;resizable=0;points=[];" parent="YqVU-Yj3tgwoMbA_o4SS-70" vertex="1" connectable="0">
          <mxGeometry x="-0.1406" y="2" relative="1" as="geometry">
            <mxPoint as="offset" />
          </mxGeometry>
        </mxCell>
        <mxCell id="YqVU-Yj3tgwoMbA_o4SS-114" value="" style="endArrow=classic;html=1;rounded=0;entryX=1.001;entryY=0.288;entryDx=0;entryDy=0;entryPerimeter=0;" parent="1" target="YqVU-Yj3tgwoMbA_o4SS-4" edge="1">
          <mxGeometry width="50" height="50" relative="1" as="geometry">
            <mxPoint x="1660" y="414" as="sourcePoint" />
            <mxPoint x="1501" y="400" as="targetPoint" />
          </mxGeometry>
        </mxCell>
        <mxCell id="YqVU-Yj3tgwoMbA_o4SS-115" value="PRDATA" style="edgeLabel;html=1;align=center;verticalAlign=middle;resizable=0;points=[];fontSize=14;" parent="YqVU-Yj3tgwoMbA_o4SS-114" vertex="1" connectable="0">
          <mxGeometry x="0.0495" y="-1" relative="1" as="geometry">
            <mxPoint as="offset" />
          </mxGeometry>
        </mxCell>
        <mxCell id="YqVU-Yj3tgwoMbA_o4SS-152" value="" style="endArrow=classic;html=1;rounded=0;entryX=1.001;entryY=0.261;entryDx=0;entryDy=0;entryPerimeter=0;" parent="1" target="YqVU-Yj3tgwoMbA_o4SS-4" edge="1">
          <mxGeometry width="50" height="50" relative="1" as="geometry">
            <mxPoint x="1660" y="380" as="sourcePoint" />
            <mxPoint x="1500" y="370" as="targetPoint" />
          </mxGeometry>
        </mxCell>
        <mxCell id="YqVU-Yj3tgwoMbA_o4SS-153" value="PREADY" style="edgeLabel;html=1;align=center;verticalAlign=middle;resizable=0;points=[];fontSize=14;" parent="YqVU-Yj3tgwoMbA_o4SS-152" vertex="1" connectable="0">
          <mxGeometry x="0.0495" y="-1" relative="1" as="geometry">
            <mxPoint as="offset" />
          </mxGeometry>
        </mxCell>
        <mxCell id="YqVU-Yj3tgwoMbA_o4SS-155" value="" style="endArrow=classic;html=1;rounded=0;entryX=1.001;entryY=0.315;entryDx=0;entryDy=0;entryPerimeter=0;" parent="1" target="YqVU-Yj3tgwoMbA_o4SS-4" edge="1">
          <mxGeometry width="50" height="50" relative="1" as="geometry">
            <mxPoint x="1660" y="445" as="sourcePoint" />
            <mxPoint x="1500" y="429.41" as="targetPoint" />
          </mxGeometry>
        </mxCell>
        <mxCell id="YqVU-Yj3tgwoMbA_o4SS-156" value="PSLVERR" style="edgeLabel;html=1;align=center;verticalAlign=middle;resizable=0;points=[];fontSize=14;" parent="YqVU-Yj3tgwoMbA_o4SS-155" vertex="1" connectable="0">
          <mxGeometry x="0.0495" y="-1" relative="1" as="geometry">
            <mxPoint as="offset" />
          </mxGeometry>
        </mxCell>
        <mxCell id="YqVU-Yj3tgwoMbA_o4SS-281" value="" style="endArrow=classic;html=1;rounded=0;entryX=0.214;entryY=0;entryDx=0;entryDy=0;entryPerimeter=0;" parent="1" target="YqVU-Yj3tgwoMbA_o4SS-76" edge="1">
          <mxGeometry width="50" height="50" relative="1" as="geometry">
            <mxPoint x="800" y="120" as="sourcePoint" />
            <mxPoint x="800" y="210" as="targetPoint" />
          </mxGeometry>
        </mxCell>
        <mxCell id="YqVU-Yj3tgwoMbA_o4SS-282" value="&lt;font style=&quot;font-size: 14px;&quot;&gt;CLK_FSM&lt;/font&gt;" style="edgeLabel;html=1;align=center;verticalAlign=middle;resizable=0;points=[];" parent="YqVU-Yj3tgwoMbA_o4SS-281" vertex="1" connectable="0">
          <mxGeometry x="0.095" y="-2" relative="1" as="geometry">
            <mxPoint as="offset" />
          </mxGeometry>
        </mxCell>
        <mxCell id="YqVU-Yj3tgwoMbA_o4SS-283" value="" style="endArrow=classic;html=1;rounded=0;entryX=0.001;entryY=0.882;entryDx=0;entryDy=0;entryPerimeter=0;" parent="1" target="YqVU-Yj3tgwoMbA_o4SS-75" edge="1">
          <mxGeometry width="50" height="50" relative="1" as="geometry">
            <mxPoint x="190" y="260" as="sourcePoint" />
            <mxPoint x="120" y="1120" as="targetPoint" />
            <Array as="points">
              <mxPoint x="120" y="260" />
              <mxPoint x="120" y="1140" />
            </Array>
          </mxGeometry>
        </mxCell>
        <mxCell id="YqVU-Yj3tgwoMbA_o4SS-286" value="CLK_FIFO" style="edgeLabel;html=1;align=center;verticalAlign=middle;resizable=0;points=[];fontSize=14;" parent="YqVU-Yj3tgwoMbA_o4SS-283" vertex="1" connectable="0">
          <mxGeometry x="0.7612" y="-1" relative="1" as="geometry">
            <mxPoint as="offset" />
          </mxGeometry>
        </mxCell>
        <mxCell id="YqVU-Yj3tgwoMbA_o4SS-294" value="" style="endArrow=classic;html=1;rounded=0;entryX=0;entryY=0.75;entryDx=0;entryDy=0;" parent="1" target="YqVU-Yj3tgwoMbA_o4SS-75" edge="1">
          <mxGeometry width="50" height="50" relative="1" as="geometry">
            <mxPoint x="160" y="280" as="sourcePoint" />
            <mxPoint x="160" y="1100" as="targetPoint" />
            <Array as="points">
              <mxPoint x="160" y="1110" />
            </Array>
          </mxGeometry>
        </mxCell>
        <mxCell id="YqVU-Yj3tgwoMbA_o4SS-296" value="RESET_FIFO" style="edgeLabel;html=1;align=center;verticalAlign=middle;resizable=0;points=[];fontSize=14;" parent="YqVU-Yj3tgwoMbA_o4SS-294" vertex="1" connectable="0">
          <mxGeometry x="0.7405" y="2" relative="1" as="geometry">
            <mxPoint as="offset" />
          </mxGeometry>
        </mxCell>
      </root>
    </mxGraphModel>
  </diagram>
</mxfile>
